<svg width="40" height="40" viewBox="0 0 40 40" fill="none" xmlns="http://www.w3.org/2000/svg">
<circle cx="20" cy="20" r="20" fill="white"/>
<path d="M19.7125 5C19.7693 5 19.9069 5.05244 20.0163 5.11699C20.1297 5.18153 20.2674 5.27835 20.3241 5.33079C20.3848 5.38324 20.5307 5.50426 20.6481 5.60511C20.7656 5.70596 20.964 5.87539 21.0896 5.98835C21.2111 6.09727 21.4581 6.33124 21.6364 6.51277C21.8145 6.69027 22.0413 6.92828 22.1466 7.0372C22.2479 7.15016 22.4666 7.41237 22.6327 7.62215C22.7987 7.83191 22.981 8.06992 23.0336 8.14657C23.0862 8.22322 23.143 8.29583 23.1551 8.30793C23.1673 8.32004 23.2807 8.4814 23.4022 8.671C23.5237 8.8606 23.71 9.15912 23.8153 9.33662C23.9165 9.51412 24.0421 9.75213 24.0867 9.86105C24.1393 9.97803 24.1636 10.0991 24.1514 10.1555C24.1393 10.2039 24.0907 10.2524 24.0461 10.2645C24.0016 10.2766 23.9044 10.2645 23.8355 10.2443C23.7627 10.2201 23.5844 10.1636 23.4386 10.1192C23.2929 10.0708 23.1389 10.0264 23.0944 10.0184C23.0498 10.0103 22.904 9.97803 22.7704 9.9498C22.6367 9.91752 22.4383 9.84894 22.3249 9.79247C22.2155 9.73599 22.0575 9.62707 21.9766 9.55446C21.8955 9.47781 21.693 9.23577 21.527 9.01389C21.3569 8.79202 21.1868 8.57418 21.1463 8.52578C21.1017 8.47737 20.9519 8.30793 20.8061 8.14254C20.6603 7.97714 20.3767 7.67458 20.1702 7.47288C19.8665 7.17033 19.7814 7.10578 19.7247 7.13402C19.6842 7.15419 19.4736 7.34783 19.2589 7.5697C19.0443 7.78754 18.7608 8.09413 18.6352 8.24742C18.5056 8.40072 18.38 8.54997 18.3558 8.57418C18.3355 8.59838 18.2869 8.66293 18.2545 8.71134C18.2221 8.75975 18.1654 8.84043 18.129 8.88884C18.0925 8.93321 17.971 9.11071 17.8576 9.27611C17.7483 9.44151 17.5498 9.76019 17.4162 9.98207C17.2866 10.2039 17.1083 10.5307 17.0192 10.7082C16.9342 10.8857 16.8613 11.043 16.8613 11.0551C16.8572 11.0672 16.8249 11.1399 16.7884 11.2165C16.7519 11.2931 16.6588 11.5069 16.5819 11.6965C16.5008 11.8862 16.4036 12.1484 16.3591 12.2815C16.3186 12.4146 16.2497 12.6244 16.2133 12.7454C16.1768 12.8664 16.1403 13.0036 16.1283 13.048C16.1161 13.0923 16.0796 13.2457 16.0472 13.3909C16.0108 13.5361 15.9784 13.6894 15.9703 13.7338C15.9622 13.7781 15.9338 13.9153 15.9095 14.0363C15.8852 14.1573 15.8366 14.4841 15.8042 14.7625C15.7718 15.0408 15.7313 15.5209 15.7192 15.8315C15.707 16.1421 15.6908 16.4365 15.6827 16.489C15.6705 16.5374 15.6017 16.6181 15.5329 16.6666C15.4599 16.7149 15.383 16.7553 15.3587 16.7593C15.3344 16.7633 15.2615 16.7916 15.1967 16.8158C15.1319 16.844 15.059 16.8723 15.0347 16.8763C15.0104 16.8844 14.9618 16.9005 14.9254 16.9126C14.8848 16.9287 14.8201 16.9529 14.7836 16.9691C14.7431 16.9811 14.6986 16.9973 14.6824 16.9973C14.6702 17.0014 14.6418 17.0135 14.6256 17.0336C14.6094 17.0497 14.569 17.0618 14.5325 17.0618C14.496 17.0618 14.4231 17.0861 14.3664 17.1183C14.2895 17.1627 14.245 17.1627 14.168 17.1264C14.1113 17.1022 14.0505 17.0256 14.0343 16.961C14.014 16.8965 14.006 16.4769 14.0221 16.0331C14.0343 15.5894 14.0505 15.1618 14.0627 15.0852C14.0708 15.0085 14.087 14.823 14.0991 14.6696C14.1113 14.5204 14.1518 14.2179 14.1842 13.996C14.2166 13.7741 14.2652 13.5078 14.2895 13.3989C14.3138 13.294 14.3381 13.1649 14.3462 13.1085C14.3543 13.052 14.4353 12.7373 14.5244 12.4025C14.6135 12.0717 14.739 11.6522 14.8039 11.4747C14.8727 11.2972 14.9618 11.0511 15.0063 10.9301C15.0509 10.8091 15.1441 10.571 15.221 10.4056C15.2939 10.2403 15.3668 10.087 15.383 10.0628C15.3992 10.0386 15.5167 9.82474 15.6463 9.57867C15.7718 9.33259 16.031 8.89691 16.2214 8.61049C16.4158 8.32004 16.59 8.06186 16.6142 8.03362C16.6345 8.00538 16.675 7.961 16.6953 7.93276C16.7155 7.90453 16.7884 7.81174 16.8532 7.72299C16.9221 7.63424 16.9828 7.55357 16.9949 7.54146C17.0111 7.52936 17.1002 7.42044 17.2015 7.29941C17.2987 7.1784 17.4809 6.96862 17.6065 6.83953C17.728 6.70641 17.967 6.46436 18.137 6.29493C18.3031 6.12551 18.534 5.90363 18.6433 5.80278C18.7527 5.70193 18.9673 5.51233 19.1253 5.3792C19.2833 5.24608 19.4533 5.10489 19.5101 5.06858C19.5667 5.03227 19.6559 5 19.7125 5ZM20.0892 10.0668C20.5145 10.0749 20.9317 10.087 21.0086 10.095C21.0855 10.1071 21.2516 10.1273 21.3731 10.1434C21.4946 10.1596 21.6242 10.1757 21.6566 10.1838C21.689 10.1878 21.7983 10.208 21.8996 10.2241C22.0009 10.2403 22.1102 10.2604 22.1426 10.2685C22.175 10.2766 22.3127 10.3088 22.4464 10.3411C22.58 10.3734 22.7582 10.4218 22.8432 10.442C22.9243 10.4662 23.0539 10.5025 23.1268 10.5226C23.1956 10.5428 23.3374 10.5872 23.4386 10.6195C23.5399 10.6558 23.7667 10.7364 23.9449 10.801C24.1231 10.8655 24.3701 10.9664 24.4916 11.0229C24.6131 11.0834 24.8886 11.2205 25.0992 11.3335C25.3097 11.4464 25.5487 11.5836 25.6257 11.632C25.7026 11.6804 25.8768 11.7934 26.0105 11.8821C26.1441 11.9668 26.2777 12.0556 26.3061 12.0798C26.3345 12.1 26.379 12.1363 26.4073 12.1605C26.4357 12.1847 26.5653 12.2815 26.699 12.3823C26.8326 12.4832 27.023 12.6365 27.1242 12.7252C27.2214 12.814 27.4604 13.0399 27.6548 13.2295C27.8492 13.4191 28.0841 13.6652 28.1813 13.7741C28.2785 13.887 28.4243 14.0565 28.5012 14.1533C28.5782 14.2501 28.6633 14.347 28.6876 14.3752C28.7119 14.3994 28.8576 14.6092 29.0156 14.8431C29.1736 15.0771 29.4125 15.4644 29.5502 15.7105C29.6879 15.9565 29.9066 16.4083 30.0362 16.7189C30.1699 17.0296 30.3319 17.4572 30.4007 17.6669C30.4737 17.8767 30.5709 18.2237 30.6235 18.4334C30.6802 18.6432 30.7328 18.8893 30.745 18.978C30.7612 19.0668 30.7896 19.2402 30.8098 19.3613C30.8341 19.4823 30.8584 19.6921 30.8705 19.8252C30.8827 19.9583 30.8989 20.1398 30.907 20.2286C30.9151 20.3173 30.907 20.4344 30.8867 20.4908C30.8705 20.5473 30.826 20.6037 30.7896 20.624C30.7571 20.6401 30.7005 20.6441 30.6681 20.632C30.6356 20.6199 30.6073 20.5917 30.6073 20.5715C30.6073 20.5513 30.4372 20.3738 30.2347 20.1802C30.0281 19.9825 29.6676 19.6356 29.4327 19.4016C29.0278 19.0023 28.9994 18.9619 28.9306 18.7159C28.8901 18.5706 28.805 18.2882 28.7402 18.0905C28.6714 17.8929 28.5174 17.5016 28.3919 17.2232C28.2663 16.9449 28.1003 16.6101 28.0233 16.4769C27.9423 16.3438 27.8087 16.126 27.7196 15.9928C27.6305 15.8597 27.4563 15.6136 27.3308 15.4482C27.2052 15.2828 27.0392 15.073 26.9622 14.9843C26.8853 14.8956 26.6666 14.6656 26.4762 14.4761C26.2858 14.2864 25.9862 14.0161 25.8079 13.8709C25.6298 13.7297 25.4758 13.6006 25.4637 13.5886C25.4515 13.5764 25.2531 13.4433 25.0182 13.29C24.7833 13.1367 24.3904 12.9108 24.1474 12.7858C23.9044 12.6607 23.5642 12.5074 23.3982 12.4469C23.2321 12.3823 23.0296 12.3097 22.9527 12.2815C22.8757 12.2533 22.746 12.2129 22.6691 12.1847C22.5922 12.1605 22.4909 12.1322 22.4464 12.1201C22.4018 12.1121 22.2924 12.0838 22.2034 12.0596C22.1143 12.0354 21.9968 12.0072 21.9401 11.9951C21.8834 11.987 21.7498 11.9588 21.6364 11.9386C21.527 11.9184 21.3609 11.8902 21.2719 11.874C21.1828 11.8619 21.0815 11.8458 21.0491 11.8377C21.0167 11.8256 20.8345 11.8055 20.6441 11.7934C20.4537 11.7772 20.0609 11.7651 19.7733 11.7692C19.4857 11.7732 19.1577 11.7853 19.0443 11.7974C18.935 11.8055 18.7527 11.8337 18.6393 11.8539C18.5299 11.874 18.3477 11.9063 18.2343 11.9225C18.1249 11.9346 17.9913 11.9628 17.9427 11.983C17.89 12.0031 17.8495 12.0112 17.8495 11.9991C17.8495 11.987 17.7766 12.0072 17.6875 12.0394C17.5984 12.0717 17.5255 12.0919 17.5255 12.0798C17.5255 12.0677 17.4566 12.0838 17.3757 12.1121C17.2906 12.1403 17.1974 12.1605 17.1732 12.1524C17.1448 12.1443 17.1002 12.1403 17.08 12.1403C17.0598 12.1403 17.0192 12.1 16.9949 12.0515C16.9544 11.9709 16.9949 11.8619 17.3028 11.2326C17.4972 10.8333 17.6713 10.5025 17.6915 10.4984C17.7118 10.4904 17.728 10.4581 17.728 10.4258C17.728 10.3935 17.7887 10.329 17.8617 10.2846C17.9305 10.2403 18.0925 10.1959 18.214 10.1838C18.3355 10.1717 18.4651 10.1515 18.4975 10.1394C18.5299 10.1273 18.7202 10.1071 18.9228 10.095C19.1253 10.0829 19.2914 10.0708 19.2995 10.0628C19.3035 10.0587 19.6599 10.0628 20.0892 10.0668ZM14.0384 11.8902C14.0829 11.9265 14.1113 11.9951 14.1032 12.0394C14.0951 12.0838 14.0221 12.4106 13.9412 12.7656C13.8602 13.1206 13.7711 13.52 13.7508 13.6531C13.7265 13.7862 13.6657 13.9798 13.6131 14.0888C13.5604 14.1936 13.4835 14.3187 13.447 14.3631C13.4066 14.4115 13.3013 14.5244 13.2122 14.6172C13.123 14.706 12.9489 14.8996 12.8274 15.0448C12.7018 15.19 12.5641 15.3554 12.5236 15.4119C12.4791 15.4724 12.4143 15.5612 12.3819 15.6096C12.3495 15.658 12.3009 15.7226 12.2806 15.7467C12.2563 15.771 12.1834 15.8839 12.1227 15.9928C12.0579 16.1058 11.989 16.2026 11.9728 16.2147C11.9566 16.2268 11.8432 16.4325 11.7177 16.6786C11.5921 16.9247 11.4747 17.1466 11.4504 17.1748C11.4301 17.199 11.418 17.2232 11.4301 17.2232C11.4423 17.2232 11.3775 17.3886 11.2884 17.5863C11.1993 17.784 11.1304 17.9615 11.1345 17.9816C11.1385 17.9977 11.1183 18.0663 11.0899 18.1309C11.0615 18.1954 11.0291 18.2882 11.0211 18.3326C11.013 18.377 10.9887 18.4577 10.9684 18.5141C10.9481 18.5706 10.8995 18.7602 10.859 18.9377C10.8185 19.1152 10.7821 19.2887 10.778 19.3209C10.7699 19.3532 10.7537 19.446 10.7375 19.5226C10.7254 19.5993 10.7051 19.7082 10.697 19.7647C10.6889 19.8212 10.6687 20.0027 10.6525 20.1681C10.6322 20.3335 10.6201 20.8054 10.6241 21.2169C10.6282 21.7817 10.6484 22.0802 10.7132 22.4473C10.7618 22.7136 10.8428 23.1049 10.8995 23.3147C10.9562 23.5244 11.0291 23.7907 11.0656 23.8996C11.1061 24.0125 11.2155 24.303 11.3127 24.5451C11.4099 24.7871 11.584 25.1703 11.6974 25.3922C11.8108 25.6141 12.0417 25.9973 12.2118 26.2394C12.3778 26.4814 12.6168 26.8001 12.7423 26.9453C12.8679 27.0905 13.1109 27.3568 13.281 27.5424C13.4592 27.7279 13.5969 27.9094 13.5969 27.9539C13.5969 27.9982 13.5564 28.0547 13.5078 28.083C13.4551 28.1071 13.3499 28.1313 13.2729 28.1354C13.196 28.1394 12.9327 28.1596 12.6856 28.1797C12.4386 28.1958 12.0984 28.212 11.9283 28.2161C11.6529 28.2161 11.6083 28.2039 11.5111 28.1152C11.4504 28.0587 11.2681 27.8409 11.1102 27.6311C10.9481 27.4213 10.7456 27.139 10.6606 27.0058C10.5755 26.8727 10.45 26.675 10.3852 26.5621C10.3204 26.4532 10.1503 26.1345 10.0126 25.8561C9.87083 25.5778 9.70073 25.2067 9.63187 25.0291C9.56707 24.8516 9.45367 24.5249 9.38481 24.303C9.31596 24.0811 9.24307 23.8432 9.22281 23.7786C9.20256 23.7141 9.16611 23.5486 9.14181 23.4155C9.11751 23.2824 9.08916 23.1371 9.08106 23.0928C9.07296 23.0484 9.05676 22.9395 9.04056 22.8507C9.02841 22.762 9.00006 22.5724 8.97576 22.4272C8.95146 22.282 8.92715 21.6929 8.91906 21.1161C8.90691 20.2528 8.91906 19.9785 8.97981 19.563C9.02031 19.2846 9.10131 18.8409 9.15801 18.5747C9.21471 18.3084 9.30787 17.9453 9.36862 17.7678C9.42532 17.5903 9.47797 17.429 9.48202 17.4047C9.49012 17.3805 9.51442 17.32 9.53467 17.2635C9.55897 17.2071 9.67237 16.9449 9.78983 16.6786C9.90323 16.4124 10.0652 16.0775 10.1422 15.9323C10.2232 15.7871 10.3406 15.5814 10.4095 15.4684C10.4743 15.3595 10.616 15.1416 10.7173 14.9843C10.8185 14.831 10.9279 14.6777 10.9562 14.6535C10.9805 14.6253 11.0048 14.5889 11.0048 14.5728C11.0048 14.5527 11.0454 14.4962 11.098 14.4397C11.1466 14.3832 11.2438 14.2663 11.3086 14.1775C11.3775 14.0888 11.4868 13.9556 11.5516 13.875C11.6164 13.7983 11.8554 13.5522 12.0781 13.3304C12.3009 13.1045 12.6006 12.818 12.7464 12.697C12.8922 12.572 13.0663 12.4267 13.1312 12.3783C13.196 12.3258 13.2608 12.2734 13.2729 12.2613C13.2851 12.2452 13.3742 12.1806 13.4754 12.1121C13.5766 12.0435 13.7265 11.9507 13.8075 11.9063C13.9533 11.8297 13.9655 11.8297 14.0384 11.8902ZM23.8315 13.1488C23.8842 13.1488 24.034 13.2254 24.1676 13.3223C24.3013 13.415 24.4431 13.5119 24.4836 13.5321C24.52 13.5562 24.6091 13.6087 24.6739 13.6531C24.7387 13.6974 24.8157 13.7459 24.836 13.766C24.8561 13.7822 25.0182 13.8951 25.1883 14.0161C25.3624 14.1372 25.5164 14.2784 25.5326 14.3308C25.5487 14.3792 25.5649 14.4478 25.573 14.4801C25.5771 14.5123 25.5933 14.6414 25.6095 14.7625C25.6216 14.8835 25.646 15.0206 25.6541 15.065C25.6662 15.1094 25.6824 15.6257 25.6905 16.2147C25.6986 16.8037 25.6864 17.4007 25.6662 17.546C25.65 17.6912 25.6216 17.9534 25.6095 18.1309C25.5933 18.3084 25.5649 18.5182 25.5447 18.5948C25.5245 18.6714 25.4961 18.8167 25.4839 18.9176C25.4677 19.0184 25.4232 19.2524 25.3786 19.4419C25.3341 19.6315 25.2896 19.8212 25.2814 19.8655C25.2733 19.9099 25.2531 19.9906 25.2288 20.0471C25.2085 20.1035 25.1883 20.16 25.1843 20.1802C25.1843 20.1963 25.168 20.2568 25.1559 20.3214C25.1437 20.3819 25.087 20.5675 25.0303 20.7328C24.9736 20.8983 24.921 21.0636 24.9169 21.0959C24.9088 21.1282 24.8602 21.2654 24.8035 21.3985C24.7468 21.5316 24.6334 21.81 24.5484 22.0157C24.4593 22.2214 24.3782 22.3868 24.358 22.3868C24.3418 22.3868 24.3337 22.3989 24.3378 22.4191C24.3418 22.4352 24.281 22.5724 24.2001 22.7297C24.1231 22.8871 24.0097 23.0928 23.957 23.1936C23.9003 23.2945 23.795 23.476 23.7221 23.597C23.6493 23.7181 23.4872 23.9722 23.3617 24.1618C23.2361 24.3514 23.1187 24.5249 23.0944 24.5491C23.0741 24.5733 23.0255 24.6378 22.9931 24.6862C22.9607 24.7347 22.8594 24.8678 22.7704 24.9847C22.6813 25.1017 22.58 25.2228 22.5476 25.259C22.5152 25.2914 22.4302 25.3922 22.3653 25.4769C22.3006 25.5617 22.1345 25.7472 22.0009 25.8844C21.8145 26.0739 21.7336 26.1304 21.6566 26.1224C21.5999 26.1183 21.3366 25.9529 21.0694 25.7553C20.802 25.5617 20.5428 25.3559 20.4901 25.3034C20.4416 25.255 20.4011 25.1824 20.4011 25.1502C20.4011 25.1179 20.4578 25.0291 20.5266 24.9606C20.5955 24.8879 20.725 24.7387 20.8183 24.6297C20.9114 24.5249 21.0207 24.3958 21.0653 24.3474C21.1058 24.303 21.207 24.182 21.2881 24.0811C21.369 23.9803 21.4581 23.8754 21.4865 23.8512C21.5108 23.8229 21.5351 23.7867 21.5351 23.7705C21.5351 23.7503 21.5675 23.702 21.6039 23.6576C21.6445 23.6131 21.7538 23.4599 21.851 23.3147C21.9441 23.1694 22.0413 23.0242 22.0616 22.9919C22.0859 22.9597 22.179 22.8064 22.2762 22.649C22.3694 22.4917 22.4949 22.2779 22.5476 22.1649C22.6003 22.056 22.6529 21.9552 22.6691 21.9431C22.6813 21.931 22.7785 21.7333 22.8797 21.4993C22.985 21.2654 23.1308 20.9144 23.2078 20.7127C23.2848 20.511 23.386 20.2125 23.4346 20.0471C23.4872 19.8817 23.552 19.6436 23.5844 19.5226C23.6209 19.4016 23.6614 19.2362 23.6816 19.1596C23.7019 19.0829 23.7262 18.9538 23.7424 18.8772C23.7546 18.8005 23.7748 18.6997 23.7788 18.6553C23.7869 18.6109 23.8072 18.5101 23.8234 18.4334C23.8396 18.3568 23.8882 18.0462 23.9287 17.7476C23.9854 17.316 23.9976 17.0094 23.9854 16.2551C23.9733 15.7346 23.957 15.2425 23.9489 15.1659C23.9368 15.0892 23.9165 14.9521 23.9044 14.8633C23.8923 14.7745 23.872 14.6213 23.8599 14.5204C23.8477 14.4196 23.8112 14.2017 23.7788 14.0363C23.7424 13.8709 23.6978 13.6692 23.6776 13.5926C23.6574 13.5159 23.6371 13.407 23.6331 13.3465C23.629 13.29 23.6493 13.2254 23.6816 13.1972C23.714 13.169 23.7789 13.1488 23.8315 13.1488ZM20.1459 16.481C20.5428 16.485 20.9924 16.5011 21.1503 16.5132C21.3082 16.5294 21.5149 16.5495 21.6161 16.5576C21.7173 16.5656 21.8915 16.5858 22.0009 16.598C22.1143 16.6141 22.2115 16.6342 22.2236 16.6383C22.2358 16.6463 22.3249 16.6625 22.4261 16.6746C22.5274 16.6867 22.7623 16.7311 22.9527 16.7714C23.143 16.8158 23.3374 16.8683 23.39 16.8924C23.4386 16.9206 23.4791 16.957 23.4791 16.9811C23.4791 17.0054 23.4832 17.0457 23.4872 17.074C23.4913 17.0982 23.4832 17.2595 23.4629 17.4249C23.4467 17.5903 23.4264 17.8081 23.4144 17.909C23.4022 18.0098 23.3698 18.1268 23.3414 18.1713C23.309 18.2156 23.228 18.3124 23.1592 18.385C23.0458 18.502 23.0174 18.5101 22.8594 18.4899C22.7663 18.4778 22.6083 18.4496 22.5071 18.4294C22.4058 18.4052 22.2519 18.381 22.1628 18.3689C22.0738 18.3608 21.9563 18.3406 21.8996 18.3286C21.8429 18.3165 21.7538 18.3003 21.6971 18.2922C21.6404 18.2841 21.4419 18.268 21.2516 18.2519C21.0613 18.2358 20.8425 18.2156 20.7656 18.2075C20.6886 18.1995 20.3606 18.1914 20.0365 18.1874C19.7125 18.1833 19.3116 18.1954 19.1455 18.2115C18.9795 18.2277 18.7972 18.2439 18.7405 18.2519C18.6838 18.2559 18.5137 18.2761 18.3558 18.2922C18.1978 18.3084 17.9467 18.3487 17.7887 18.381C17.6308 18.4132 17.4688 18.4456 17.4242 18.4577C17.3797 18.4657 17.2866 18.4859 17.2217 18.498C17.157 18.5101 17.0921 18.5262 17.08 18.5343C17.0679 18.5423 16.999 18.5585 16.9261 18.5706C16.8572 18.5827 16.6183 18.6513 16.3996 18.7159C16.1849 18.7844 15.9743 18.857 15.9338 18.8772C15.8973 18.9014 15.8407 18.9176 15.8123 18.9176C15.788 18.9216 15.6908 18.9538 15.6017 18.9982C15.5126 19.0426 15.4235 19.0749 15.3992 19.0789C15.3749 19.0789 15.2534 19.1314 15.1238 19.1999C14.9982 19.2645 14.8929 19.3128 14.8929 19.3007C14.8929 19.2887 14.7431 19.3572 14.5568 19.454C14.3745 19.5509 14.0991 19.7001 13.9412 19.7848C13.7832 19.8696 13.4754 20.0591 13.2526 20.2084C13.0299 20.3537 12.7018 20.5796 12.5236 20.7127C12.3454 20.8418 12.1794 20.9709 12.1551 20.9951C12.1267 21.0152 12.0376 21.0919 11.9526 21.1564C11.8716 21.2209 11.7177 21.3541 11.6164 21.4469C11.5152 21.5397 11.3896 21.6405 11.337 21.6688C11.26 21.7131 11.2357 21.7131 11.1871 21.6607C11.1426 21.6123 11.1264 21.4307 11.1223 20.8337C11.1142 20.2003 11.1223 20.0269 11.179 19.8453C11.2236 19.7042 11.3208 19.5428 11.4423 19.4057C11.5638 19.2605 11.8149 19.0668 12.147 18.849C12.4345 18.6634 12.6816 18.5141 12.7059 18.5141C12.7302 18.5141 12.7464 18.4899 12.7464 18.4657C12.7464 18.4375 12.7585 18.4253 12.7747 18.4415C12.7909 18.4577 12.8517 18.4375 12.9084 18.3971C12.9651 18.3568 13.1473 18.2519 13.3134 18.1672C13.4795 18.0824 13.6253 17.9977 13.6374 17.9776C13.6496 17.9574 13.6657 17.9453 13.6779 17.9534C13.69 17.9574 13.8359 17.8969 14.002 17.8203C14.168 17.7395 14.3867 17.6387 14.4879 17.5943C14.5892 17.55 14.816 17.4572 14.9942 17.3886C15.1724 17.32 15.5005 17.2071 15.7232 17.1385C15.946 17.0699 16.2659 16.9771 16.432 16.9328C16.5981 16.8884 16.7803 16.844 16.8369 16.8359C16.8937 16.8238 16.9464 16.8077 16.9585 16.7997C16.9706 16.7916 17.0436 16.7754 17.1205 16.7633C17.1974 16.7472 17.3554 16.7189 17.4647 16.6988C17.5781 16.6786 17.7321 16.6504 17.809 16.6383C17.886 16.6262 18.0439 16.606 18.1532 16.5939C18.2666 16.5818 18.4003 16.5656 18.457 16.5576C18.5137 16.5455 18.7486 16.5254 18.9835 16.5132C19.2184 16.4971 19.4129 16.485 19.4169 16.481C19.425 16.4769 19.7531 16.4769 20.1459 16.481ZM26.6301 18.0986C26.8245 18.2035 27.0635 18.3366 27.1647 18.3971C27.266 18.4577 27.4279 18.5585 27.5293 18.619C27.6305 18.6795 27.8127 18.8046 27.9383 18.8933C28.0638 18.9861 28.2056 19.0869 28.2582 19.1192C28.3068 19.1515 28.3716 19.1999 28.3959 19.2201C28.4202 19.2443 28.5499 19.3452 28.6835 19.4419C28.8172 19.5428 28.9346 19.6315 28.9468 19.6436C28.9589 19.6557 29.1047 19.7808 29.2708 19.922C29.4368 20.0672 29.8135 20.4182 30.1011 20.7087C30.3886 20.9991 30.745 21.3824 30.8908 21.5598C31.0326 21.7374 31.1622 21.8906 31.1743 21.9027C31.1865 21.9148 31.2675 22.0238 31.3606 22.1448C31.4497 22.2658 31.5915 22.4635 31.6724 22.5804C31.7535 22.6934 31.9357 22.9758 32.0775 23.2057C32.2152 23.4317 32.4339 23.8189 32.5595 24.061C32.685 24.303 32.8591 24.6782 32.9483 24.8879C33.0374 25.0977 33.1751 25.4446 33.252 25.6544C33.3289 25.8642 33.4585 26.2555 33.5355 26.5218C33.6165 26.788 33.734 27.2519 33.8028 27.5504C33.8676 27.8489 33.9284 28.1596 33.9405 28.2362C33.9527 28.3129 33.977 28.4581 33.9891 28.559C34.0094 28.6799 34.0013 28.7728 33.9648 28.8413C33.9365 28.8978 33.896 28.9624 33.8717 28.9866C33.8474 29.0067 33.7218 29.0753 33.5963 29.1358C33.4667 29.1963 33.3573 29.2448 33.3533 29.2448C33.3451 29.2448 33.2682 29.273 33.1791 29.3133C33.09 29.3496 33.009 29.3819 32.9968 29.386C32.9847 29.386 32.8227 29.4424 32.6323 29.507C32.442 29.5715 32.2759 29.632 32.2597 29.636C32.2395 29.6441 32.2233 29.6482 32.2193 29.6522C32.2111 29.6522 32.1787 29.6603 32.1463 29.6683C32.114 29.6723 31.9843 29.7086 31.8628 29.745C31.7413 29.7813 31.5955 29.8176 31.5389 29.8296C31.4821 29.8417 31.4092 29.8579 31.3768 29.87C31.3444 29.8821 31.2715 29.8982 31.2148 29.9103C31.1581 29.9225 31.069 29.9386 31.0123 29.9507C30.9556 29.9628 30.8665 29.9789 30.8098 29.9911C30.7531 30.0072 30.5992 30.0314 30.4656 30.0515C30.3319 30.0717 30.1415 30.0999 30.0403 30.1161C29.939 30.1282 29.8135 30.1443 29.7568 30.1524C29.7001 30.1645 29.4652 30.1847 29.2303 30.2008C28.9953 30.217 28.4648 30.2331 28.0517 30.2331C27.351 30.2331 27.2903 30.229 27.2092 30.1524C27.1607 30.108 27.1202 30.0596 27.1242 30.0434C27.1242 30.0233 27.2295 29.9144 27.3591 29.8015C27.4847 29.6844 27.7642 29.4141 27.9748 29.2004C28.1853 28.9866 28.4324 28.7647 28.5215 28.7082C28.6106 28.6558 28.7645 28.5872 28.8657 28.559C28.967 28.5307 29.0844 28.5025 29.129 28.4985C29.1736 28.4904 29.2829 28.4742 29.372 28.4621C29.4611 28.45 29.5907 28.4299 29.6556 28.4178C29.7203 28.4056 29.9147 28.3694 30.0808 28.337C30.2469 28.3048 30.749 28.1958 31.1945 28.095C31.6401 27.9941 32.0289 27.9054 32.0572 27.8933C32.0815 27.8812 32.1059 27.8409 32.1059 27.8046C32.1059 27.7642 32.0613 27.5786 32.0046 27.3891C31.9479 27.1995 31.8912 27.0099 31.8831 26.9655C31.8709 26.9211 31.8345 26.7961 31.798 26.6831C31.7616 26.5742 31.7089 26.4168 31.6805 26.3402C31.6523 26.2636 31.5712 26.0538 31.4983 25.8763C31.4255 25.6988 31.2553 25.3276 31.1217 25.0493C30.988 24.7709 30.7977 24.4079 30.6964 24.2425C30.5952 24.0771 30.4048 23.7786 30.2711 23.5769C30.1375 23.3752 29.8864 23.0403 29.7203 22.8306C29.5502 22.6208 29.287 22.3102 29.129 22.1488C28.9751 21.9834 28.7361 21.7414 28.6025 21.6163C28.4689 21.4912 28.3028 21.342 28.238 21.2936C28.1732 21.2412 28.08 21.1604 28.0355 21.1161C27.991 21.0717 27.7155 20.8619 27.4279 20.6522C27.1404 20.4424 26.8124 20.2125 26.703 20.1398C26.5896 20.0713 26.4073 19.9583 26.2939 19.8938C26.1846 19.8292 26.0509 19.7162 26.0024 19.6396C25.9537 19.563 25.9132 19.4379 25.9132 19.3613C25.9132 19.2846 25.9294 19.1434 25.9497 19.0507C25.974 18.9538 26.0185 18.6916 26.0509 18.4657C26.0996 18.143 26.132 18.0341 26.1968 17.9816C26.2777 17.9131 26.2939 17.9171 26.6301 18.0986ZM15.9865 19.3613C16.0188 19.3613 16.0675 19.3814 16.0918 19.4097C16.1201 19.4379 16.2052 19.6517 16.2821 19.8857C16.3591 20.1197 16.5089 20.5271 16.6142 20.7934C16.7195 21.0596 16.9342 21.5316 17.0962 21.8422C17.2541 22.1529 17.5579 22.6692 17.7726 22.9919C17.9872 23.3147 18.2585 23.6939 18.376 23.8391C18.4934 23.9843 18.7001 24.2263 18.8377 24.3797C18.9714 24.533 19.2022 24.779 19.348 24.9242C19.4939 25.0695 19.6963 25.2631 19.7935 25.3519C19.8948 25.4406 20.0649 25.5858 20.1743 25.6746C20.2836 25.7634 20.4011 25.8642 20.4416 25.8965C20.4821 25.9287 20.555 25.9852 20.6035 26.0175C20.6522 26.0498 20.8384 26.1829 21.0126 26.312C21.1868 26.4371 21.4338 26.6024 21.5553 26.675C21.6768 26.7436 21.8672 26.8526 21.9725 26.9131C22.0778 26.9735 22.333 27.1067 22.5395 27.2075C22.742 27.3083 22.9324 27.3891 22.9527 27.3891C22.9728 27.3891 22.9931 27.4093 22.9931 27.4294C22.9931 27.4496 23.0215 27.4698 23.0539 27.4698C23.0862 27.4698 23.147 27.4859 23.1876 27.506C23.224 27.5303 23.4103 27.611 23.6006 27.6876C23.791 27.7683 23.9814 27.8409 24.0259 27.8489C24.0704 27.857 24.1757 27.8933 24.2608 27.9296C24.3418 27.9659 24.4147 27.9861 24.4228 27.978C24.4269 27.97 24.5119 27.9982 24.6091 28.0466C24.7104 28.095 24.8076 28.1676 24.8319 28.208C24.8642 28.2523 24.8642 28.2967 24.836 28.3411C24.8157 28.3774 24.6699 28.4742 24.5119 28.5549C24.354 28.6356 24.2082 28.7082 24.1879 28.7163C24.1676 28.7243 23.9449 28.8252 23.7019 28.9422C23.4589 29.0551 23.2037 29.1722 23.1349 29.1963C23.0701 29.2245 22.9566 29.2407 22.8919 29.2286C22.8271 29.2205 22.5517 29.1157 22.2843 28.9906C22.017 28.8695 21.5796 28.6477 21.3123 28.4985C21.0451 28.3492 20.7899 28.208 20.7453 28.1797C20.7008 28.1556 20.5266 28.0466 20.3606 27.9337C20.1945 27.8248 19.8543 27.5827 19.6113 27.4012C19.3683 27.2237 19.1172 27.03 19.0605 26.9776C19.0038 26.9292 18.8499 26.7961 18.7202 26.6831C18.5867 26.5742 18.291 26.2918 18.0561 26.0578C17.8171 25.8239 17.5417 25.5334 17.4404 25.4124C17.3392 25.2914 17.1448 25.0533 17.0152 24.8879C16.8815 24.7226 16.6304 24.3797 16.4603 24.1336C16.2902 23.8834 16.1484 23.6696 16.1484 23.6576C16.1484 23.6455 16.1161 23.589 16.0715 23.5285C16.031 23.4639 15.9541 23.3429 15.9054 23.2541C15.8528 23.1654 15.6786 22.8266 15.5167 22.4998C15.3506 22.169 15.2169 21.8947 15.2169 21.8826C15.2169 21.8705 15.1684 21.7575 15.1116 21.6324C15.055 21.5033 14.9618 21.2815 14.9051 21.1363C14.8524 20.991 14.7552 20.7167 14.6905 20.5231C14.6216 20.3254 14.569 20.1358 14.569 20.0995C14.569 20.0591 14.6135 19.9865 14.6702 19.9382C14.7269 19.8857 14.7714 19.8534 14.7714 19.8655C14.7714 19.8777 14.8686 19.8373 14.9861 19.7768C15.0995 19.7162 15.2048 19.6638 15.2169 19.6638C15.2291 19.6638 15.2737 19.6396 15.3182 19.6154C15.3628 19.5912 15.4073 19.571 15.4195 19.571C15.4316 19.571 15.4843 19.5509 15.5409 19.5307C15.5977 19.5105 15.707 19.4621 15.7839 19.4298C15.8609 19.3976 15.9541 19.3653 15.9865 19.3613ZM8.3804 22.7095C8.40064 22.7095 8.44115 22.7378 8.47355 22.7701C8.50595 22.8023 8.5343 22.8548 8.53835 22.883C8.53835 22.9072 8.54645 22.9597 8.55455 22.9919C8.56265 23.0242 8.57885 23.125 8.59505 23.2138C8.6072 23.3026 8.6477 23.476 8.6801 23.597C8.71251 23.7181 8.7773 23.9198 8.82591 24.0408C8.88666 24.2062 8.90691 24.3595 8.90691 24.6257C8.90691 24.9283 8.88666 25.0412 8.7854 25.3115C8.7206 25.489 8.60315 25.8077 8.52215 26.0175C8.44519 26.2273 8.36015 26.4814 8.33179 26.5823C8.30344 26.6831 8.23459 26.9009 8.18194 27.0664C8.12929 27.2317 8.06854 27.4254 8.04829 27.4899C8.02399 27.5545 7.99968 27.6472 7.99159 27.6916C7.98349 27.736 7.94704 27.8449 7.91868 27.9337C7.87818 28.0506 7.87413 28.1071 7.90248 28.1394C7.92678 28.1596 8.06449 28.212 8.21029 28.2523C8.35609 28.2927 8.51 28.333 8.55455 28.3451C8.5991 28.3532 8.672 28.3694 8.71655 28.3774C8.7611 28.3895 8.87856 28.4137 8.97981 28.4379C9.08106 28.4661 9.19851 28.4904 9.24307 28.4944C9.28762 28.5025 9.36862 28.5186 9.42532 28.5307C9.48202 28.5468 9.59947 28.567 9.68858 28.5751C9.77768 28.5872 9.89513 28.6033 9.95183 28.6154C10.0085 28.6276 10.1341 28.6437 10.2353 28.6558C10.3366 28.6678 10.6079 28.688 10.8428 28.7042C11.0778 28.7203 11.4949 28.7324 11.7744 28.7324C12.0538 28.7284 12.4102 28.7163 12.5641 28.7042C12.7221 28.6921 12.9286 28.6719 13.0299 28.6598C13.1312 28.6437 13.3053 28.6195 13.4147 28.5993C13.5281 28.5791 13.6617 28.5509 13.7184 28.5387C13.7751 28.5267 13.8845 28.5065 13.9614 28.4985C14.0384 28.4904 14.1396 28.4742 14.1842 28.4621C14.2288 28.454 14.3462 28.4258 14.4474 28.4016C14.5487 28.3814 14.7067 28.333 14.8039 28.2967C14.897 28.2644 14.9739 28.2443 14.9739 28.2564C14.9739 28.2685 15.0388 28.2483 15.1157 28.2161C15.1926 28.1838 15.2575 28.1636 15.2575 28.1757C15.2575 28.1878 15.2818 28.1838 15.3101 28.1676C15.3344 28.1515 15.3709 28.1313 15.3911 28.1273C15.4073 28.1192 15.4235 28.1152 15.4316 28.1112C15.4356 28.1112 15.468 28.1031 15.5005 28.095C15.5329 28.087 15.7151 28.0265 15.9054 27.9539C16.0958 27.8853 16.3145 27.8006 16.3915 27.7642C16.4685 27.7279 16.7519 27.5948 17.0192 27.4657C17.2866 27.3366 17.6227 27.1631 17.7685 27.0825C17.9143 27.0018 18.0804 26.9373 18.1451 26.9413C18.2059 26.9413 18.2869 26.9695 18.3274 26.9978C18.3679 27.0219 18.4975 27.1269 18.6149 27.2277C18.7365 27.3286 18.8863 27.4577 18.9592 27.5181C19.0281 27.5827 19.1699 27.6997 19.2752 27.7803C19.3805 27.8651 19.4655 27.9619 19.4695 27.9941C19.4695 28.0265 19.4493 28.087 19.421 28.1232C19.3926 28.1596 19.1861 28.2847 18.9633 28.4016C18.7405 28.5186 18.2869 28.7526 17.9508 28.922C17.6187 29.0914 17.1326 29.3174 16.8775 29.4222C16.6223 29.5271 16.3833 29.6199 16.351 29.6279C16.3186 29.636 16.1444 29.6925 15.9662 29.753C15.788 29.8095 15.6139 29.87 15.5814 29.8781C15.549 29.8861 15.5167 29.8942 15.5126 29.8942C15.5045 29.8902 15.4275 29.9184 15.3384 29.9507C15.2494 29.983 15.1765 30.0032 15.1765 29.9911C15.1765 29.9789 15.1278 29.9911 15.0671 30.0152C15.0023 30.0394 14.7917 30.0919 14.5892 30.1323C14.3907 30.1725 14.1599 30.217 14.0829 30.229C14.006 30.2411 13.8966 30.2613 13.8399 30.2694C13.7832 30.2815 13.6576 30.2976 13.5564 30.3137C13.4551 30.3299 13.3215 30.3461 13.2526 30.3541C13.1879 30.3622 12.9124 30.3823 12.6451 30.3985C12.3778 30.4146 11.9242 30.4307 11.6326 30.4267C11.3451 30.4267 10.8793 30.4146 10.5998 30.3985C10.3204 30.3863 10.0571 30.3662 10.0126 30.3581C9.96803 30.3501 9.84248 30.3299 9.72907 30.3178C9.61973 30.3016 9.47392 30.2815 9.40507 30.2694C9.34026 30.2613 9.19447 30.2331 9.08106 30.2129C8.97171 30.1927 8.82591 30.1645 8.75705 30.1524C8.69225 30.1363 8.5991 30.1201 8.55455 30.112C8.51 30.104 8.29939 30.0515 8.08879 29.9951C7.87818 29.9386 7.58657 29.8579 7.44078 29.8135C7.29497 29.7732 7.08842 29.7046 6.97501 29.6643C6.86566 29.6279 6.6186 29.5312 6.4323 29.4505C6.246 29.3698 6.06779 29.2689 6.03944 29.2245C6.00299 29.1681 5.99084 29.0672 6.00704 28.9019C6.01514 28.7687 6.03134 28.6154 6.04349 28.559C6.05159 28.5025 6.08804 28.2887 6.12044 28.087C6.15689 27.8812 6.22169 27.5545 6.26625 27.3608C6.3108 27.1631 6.3594 26.9695 6.3675 26.9252C6.37965 26.8808 6.4161 26.7436 6.45255 26.6226C6.49305 26.5016 6.56595 26.2756 6.61455 26.1183C6.66721 25.961 6.74416 25.7351 6.78871 25.6141C6.83326 25.4931 6.97097 25.1542 7.09652 24.8678C7.22207 24.5813 7.40432 24.1981 7.49748 24.0206C7.59468 23.8432 7.70808 23.6374 7.74858 23.5607C7.78908 23.4881 7.91463 23.2864 8.01993 23.117C8.12929 22.9476 8.24674 22.7862 8.28319 22.762C8.31964 22.7337 8.36419 22.7095 8.3804 22.7095ZM29.1006 23.0484C29.1169 23.0605 29.1736 23.0807 29.2303 23.0928C29.287 23.1049 29.3315 23.117 29.3355 23.125C29.3355 23.1291 29.5097 23.3792 29.7244 23.6777C29.935 23.9763 30.1496 24.2869 30.1982 24.3635C30.2428 24.4401 30.2833 24.5692 30.2833 24.6459C30.2833 24.7226 30.2469 24.8879 30.1982 25.009C30.1496 25.13 30.0848 25.2954 30.0524 25.372C30.02 25.4487 29.9269 25.6383 29.8499 25.7956C29.773 25.9529 29.6231 26.2273 29.5219 26.4128C29.4166 26.5984 29.3112 26.78 29.291 26.8162C29.2708 26.8566 29.1614 27.0219 29.048 27.1874C28.9387 27.3528 28.8293 27.5141 28.805 27.5424C28.7848 27.5706 28.7442 27.615 28.724 27.6432C28.7038 27.6715 28.6106 27.7844 28.5215 27.8933C28.4365 28.0063 28.3271 28.1394 28.2785 28.1918C28.234 28.2483 27.9585 28.5307 27.671 28.8171C27.3794 29.1076 27.0877 29.39 27.0189 29.4465C26.9501 29.5029 26.8326 29.5957 26.7556 29.6562C26.6787 29.7167 26.456 29.8821 26.2534 30.0233C26.0509 30.1645 25.7513 30.3581 25.5852 30.4549C25.4192 30.5518 25.0546 30.7454 24.7752 30.8866C24.4957 31.0278 24.2648 31.1448 24.2608 31.1407C24.2527 31.1407 24.1879 31.165 24.1191 31.1932C24.0461 31.2255 23.868 31.29 23.7221 31.3424C23.5763 31.3908 23.4346 31.4393 23.4103 31.4473C23.3819 31.4554 23.3495 31.4594 23.3455 31.4554C23.3374 31.4473 23.305 31.4635 23.2726 31.4917C23.2402 31.5159 23.143 31.5482 23.0539 31.5644C22.9647 31.5805 22.8676 31.6167 22.8392 31.641C22.8109 31.6652 22.7866 31.6732 22.7906 31.6571C22.7906 31.637 22.7178 31.6531 22.6286 31.6853C22.5395 31.7176 22.4585 31.7458 22.4464 31.7458C22.4342 31.7458 22.3775 31.7539 22.3168 31.766C22.2519 31.7741 22.1466 31.7943 22.0819 31.8063C22.017 31.8184 21.9239 31.8346 21.8794 31.8427C21.8348 31.8508 21.7173 31.8709 21.6161 31.887C21.5149 31.8992 21.3893 31.9193 21.3326 31.9274C21.2759 31.9354 21.0855 31.9556 20.9073 31.9718C20.7291 31.9879 20.2755 32 19.8948 32C19.5141 32 19.0686 31.9879 18.9025 31.9718C18.7365 31.9556 18.5542 31.9395 18.4975 31.9274C18.4408 31.9193 18.3234 31.9032 18.2343 31.8911C18.1451 31.8749 18.0277 31.8588 17.971 31.8467C17.9143 31.8387 17.813 31.8184 17.7483 31.8023C17.6834 31.7902 17.5903 31.7741 17.5457 31.766C17.5012 31.7579 17.2825 31.7055 17.0598 31.645C16.8369 31.5845 16.6466 31.532 16.6345 31.524C16.6223 31.5119 16.5778 31.4998 16.5332 31.4877C16.4886 31.4755 16.3145 31.4191 16.1484 31.3586C15.9824 31.3021 15.6624 31.173 15.4397 31.0721C15.2169 30.9753 14.9942 30.8664 14.9456 30.8342C14.8929 30.8059 14.8524 30.7454 14.8524 30.7091C14.8484 30.6688 14.8727 30.6123 14.901 30.588C14.9294 30.5598 14.9982 30.5276 15.055 30.5154C15.1116 30.5034 15.2129 30.4792 15.2777 30.4549C15.3425 30.4307 15.4437 30.4066 15.5005 30.3944C15.5571 30.3823 15.6665 30.3541 15.7435 30.3299C15.8204 30.3057 15.9135 30.2775 15.946 30.2654C15.9784 30.2492 16.0148 30.2371 16.0269 30.2331C16.0391 30.229 16.1201 30.1928 16.2092 30.1524C16.2983 30.112 16.4967 30.0596 16.6547 30.0354C16.8127 30.0072 17.0557 29.9911 17.2015 29.9991C17.3473 30.0032 17.5377 30.0152 17.6268 30.0273C17.7159 30.0394 17.8455 30.0596 17.9102 30.0717C17.9751 30.0838 18.1776 30.1242 18.3558 30.1605C18.534 30.1968 18.7243 30.229 18.781 30.2371C18.8377 30.2451 18.9916 30.2654 19.1253 30.2815C19.2589 30.2976 19.6316 30.3137 19.9556 30.3137C20.2795 30.3137 20.6805 30.2976 20.8465 30.2815C21.0126 30.2613 21.1585 30.2411 21.1706 30.2331C21.1828 30.225 21.2881 30.2089 21.4055 30.1968C21.5189 30.1847 21.6283 30.1645 21.6485 30.1564C21.6647 30.1443 21.7336 30.1282 21.7983 30.1161C21.8632 30.104 21.9644 30.0838 22.0211 30.0717C22.0778 30.0637 22.1993 30.0273 22.2965 29.9911C22.3896 29.9588 22.4707 29.9346 22.4788 29.9386C22.4828 29.9426 22.6124 29.9023 22.7704 29.8499C22.9283 29.7934 23.062 29.749 23.0741 29.749C23.0862 29.745 23.1673 29.7127 23.2564 29.6764C23.3455 29.636 23.4184 29.6078 23.4184 29.6078C23.4184 29.6078 23.4832 29.5836 23.5601 29.5513C23.6371 29.5191 23.71 29.4948 23.7221 29.4948C23.7343 29.4948 23.8599 29.4303 24.0057 29.3536C24.1514 29.277 24.3782 29.156 24.5119 29.0833C24.6456 29.0107 24.9453 28.8252 25.1802 28.6678C25.4151 28.5105 25.6135 28.3734 25.6257 28.3613C25.6379 28.3492 25.7188 28.2806 25.8079 28.2161C25.8971 28.1475 26.1724 27.8933 26.4154 27.6512C26.6625 27.4093 26.9177 27.143 26.9865 27.0664C27.0513 26.9897 27.2255 26.7638 27.3753 26.5621C27.5212 26.3604 27.6629 26.1546 27.6912 26.0982C27.7196 26.0417 27.7561 25.9892 27.7723 25.9772C27.7844 25.9651 27.918 25.7391 28.0638 25.4729C28.2097 25.2067 28.3838 24.8638 28.4527 24.7064C28.5215 24.5491 28.6714 24.1416 28.7848 23.7987C28.8982 23.4558 29.0116 23.1412 29.0359 23.1009C29.0561 23.0605 29.0885 23.0403 29.1006 23.0484Z" fill="black"/>
</svg>
